<svg width="58" height="34" viewBox="0 0 58 34" fill="none" xmlns="http://www.w3.org/2000/svg">
<path d="M36.7547 4.69938V3.13731H35.6355V9.38194H33.6323V6.25962H32.0721V4.25828H33.6323V2.69621H35.1944V1.61898C34.9593 1.58253 34.7223 1.55701 34.4763 1.55701C31.8898 1.55701 29.7937 3.65496 29.7937 6.2414C29.7937 8.82966 31.8898 10.9258 34.4763 10.9258C37.0645 10.9258 39.1607 8.82966 39.1607 6.2414C39.1607 5.70005 39.064 5.1824 38.8945 4.69938H36.7547Z" fill="#ADBFE3"/>
<path d="M35.1933 3.13637H34.0724V4.25732H35.1933V3.13637Z" fill="#ADBFE3"/>
<path d="M35.1933 4.69921H34.0724V5.81836H35.1933V4.69921Z" fill="#ADBFE3"/>
<path d="M32.5118 5.81836H33.6328V4.69921H32.5118V5.81836Z" fill="#ADBFE3"/>
<path d="M35.1933 6.25927H34.0724V7.37842H35.1933V6.25927Z" fill="#ADBFE3"/>
<path d="M34.0724 8.93994H35.1933V7.8208H34.0724V8.93994Z" fill="#ADBFE3"/>
<path d="M38.294 3.12905H37.1748V4.25H38.294V3.12905Z" fill="#ADBFE3"/>
<path d="M36.7559 1.55773H35.6367V2.67871H36.7559V1.55773Z" fill="#ADBFE3"/>
<path d="M38.3133 0.000111938H37.1924V1.12109H38.3133V0.000111938Z" fill="#ADBFE3"/>
<path d="M14.7093 29.819H4.98878V24.0028H14.7093V29.819ZM15.1268 31.0731L18.7904 17.2113C18.9563 16.5879 19.2552 16.0338 19.6343 15.549C19.3099 14.5264 18.3639 13.7791 17.2374 13.7791C15.8412 13.7791 14.7093 14.9165 14.7093 16.32V19.8233H4.98878V16.2854C4.98878 14.9019 3.87147 13.7791 2.4935 13.7791C1.11552 13.7791 0 14.9019 0 16.2854V31.3337C0 32.8065 1.18657 33.9985 2.65203 33.9985H17.1864C17.221 33.9985 17.252 33.9894 17.2848 33.9876C15.8066 33.9347 14.744 32.5221 15.1268 31.0731Z" fill="#E74249"/>
<path d="M52.8352 29.8828H42.6061V17.9258H52.8352V29.8828ZM55.1901 13.8138H40.2529C39.2377 13.8138 38.3737 14.4444 38.0146 15.3339C38.5068 15.888 38.8732 16.5661 39.0536 17.328L42.3947 31.3975C42.7082 32.7245 41.7093 33.9985 40.3496 33.9985H55.1901C56.5244 33.9985 57.6034 32.9122 57.6034 31.5725V16.238C57.6034 14.9001 56.5244 13.8138 55.1901 13.8138Z" fill="#00ABA6"/>
<path d="M26.4738 31.0724L28.8434 22.1083L27.7078 17.3273C27.2139 15.2458 25.3638 13.7803 23.2367 13.7803C21.7931 13.7803 20.488 14.4638 19.635 15.5484C19.7134 15.7926 19.7662 16.0496 19.7662 16.3194V31.4097C19.7662 31.5318 19.748 31.6484 19.7298 31.7669L22.7847 19.2612C22.905 18.7636 23.6122 18.7746 23.7161 19.274L26.441 32.146C26.441 32.1497 26.4447 32.1533 26.4447 32.1533C26.3718 31.8088 26.3754 31.4425 26.4738 31.0724Z" fill="#006FB8"/>
<path d="M19.7671 16.3207C19.7671 16.0509 19.7142 15.7939 19.6359 15.5497C19.2567 16.0345 18.9578 16.5886 18.7919 17.212L15.1264 31.0738C14.7437 32.5228 15.8063 33.9354 17.2864 33.9883C17.4012 33.9846 17.5179 33.9737 17.629 33.9536C17.6691 33.95 17.7074 33.9409 17.7475 33.9336C18.4711 33.7732 19.0726 33.3029 19.4262 32.6723C19.4973 32.5265 19.5775 32.3861 19.6194 32.2257L19.7288 31.7682C19.747 31.6497 19.7671 31.5331 19.7671 31.4091V16.3207Z" fill="#262C3E"/>
<path d="M37.8369 16.2382C37.8369 15.9174 37.9025 15.6131 38.0155 15.3342C36.9146 14.0911 35.1757 13.4659 33.3767 13.9362C31.7454 14.3645 30.5278 15.7334 30.0977 17.361L28.8418 22.1092L30.9817 31.1189C31.06 31.4507 31.0546 31.7751 30.9981 32.085L34.0147 19.7433C34.1386 19.2403 34.8531 19.2421 34.9734 19.7452L37.8606 31.8006C37.8533 31.7241 37.8369 31.6512 37.8369 31.5728V16.2382Z" fill="#F4AB4A"/>
<path d="M42.3938 31.399L39.0528 17.3276C38.8723 16.5657 38.506 15.8876 38.0157 15.3354C37.9027 15.6142 37.837 15.9186 37.837 16.2394V31.574C37.837 31.6523 37.8534 31.7252 37.8607 31.8018L37.8753 31.8674C37.8881 32.0151 37.9172 32.1572 37.9573 32.2939C37.9628 32.3085 37.9664 32.3231 37.9701 32.3377C38.0084 32.4543 38.0558 32.5655 38.1104 32.6731C38.1287 32.7077 38.1469 32.7405 38.1669 32.7733C38.2235 32.8754 38.2854 32.9702 38.3565 33.0595C38.3711 33.0777 38.3875 33.0959 38.4021 33.1123C38.8632 33.661 39.5723 34 40.3506 34C41.7085 34 42.7092 32.7259 42.3938 31.399Z" fill="#2C8045"/>
<path d="M30.9817 31.1195L28.8418 22.1098L26.4723 31.0739C26.3757 31.4439 26.3721 31.8103 26.445 32.153C26.4942 32.3899 26.5908 32.605 26.7056 32.8091C26.733 32.8584 26.7621 32.9058 26.7931 32.955C26.9225 33.1482 27.0702 33.3286 27.2506 33.4744C27.2561 33.4799 27.2634 33.4817 27.2688 33.4872C27.4456 33.6275 27.648 33.7369 27.8594 33.8208C27.9068 33.839 27.9542 33.8572 28.0016 33.8736C28.2276 33.9483 28.4664 33.9976 28.7161 33.9976C28.9603 33.9976 29.1936 33.9502 29.416 33.8791C29.4597 33.8645 29.5017 33.8481 29.5454 33.8317C29.9883 33.6604 30.3711 33.3596 30.6372 32.9623C30.6463 32.9459 30.6573 32.9276 30.6682 32.9094C30.7976 32.7016 30.9033 32.4738 30.9635 32.2241L30.9981 32.0855C31.0546 31.7757 31.0601 31.4512 30.9817 31.1195Z" fill="#26553D"/>
<path d="M23.4794 1.38387C20.8183 1.38387 18.6602 3.54925 18.6602 6.22318C18.6602 8.89529 20.8183 11.0625 23.4794 11.0625C26.1406 11.0625 28.2969 8.89529 28.2969 6.22318C28.2969 3.54925 26.1406 1.38387 23.4794 1.38387Z" fill="#ADBFE3"/>
</svg>
